<?xml version="1.0" encoding="UTF-8"?>
<svg id="Camada_2" data-name="Camada 2" xmlns="http://www.w3.org/2000/svg" viewBox="0 0 385.09 455.6">
  <defs>
    <style>
      .cls-1 {
        fill: #f00b91;
      }

      .cls-2 {
        fill: #ff73d3;
      }

      .cls-3 {
        fill: #f52aab;
      }
    </style>
  </defs>
  <g id="Camada_1-2" data-name="Camada 1">
    <g>
      <polygon class="cls-1" points="194.07 133.34 0 261.38 89.79 382.98 194.07 382.98 194.07 133.34"/>
      <polygon class="cls-3" points="296.91 382.98 196.25 382.98 196.25 133.34 385.09 261.79 296.91 382.98"/>
      <polygon class="cls-2" points="195.91 0 94.86 189.21 195.91 120.72 297.64 189.21 195.91 0"/>
      <g>
        <path class="cls-3" d="m362.62,414.82c-5.17-3.95-13.94-6.89-20.28-3.92-10.3,4.83-8.92,22.85-2.13,33.36,1.7,2.64,4.89,7.58,10.33,8.51,7.73,1.32,15.4-6.23,18.28-12.8,3.3-7.53,2.41-18.58-6.2-25.14Z"/>
        <path class="cls-3" d="m223.58,430.31c2.72-1.68,8.59-1.12,20.33,0,1.44.14,2.64.27,3.5.37-.09,3.21-.19,6.42-.28,9.63-.9,2.04-2.7,5.32-6.31,8.27-1.26,1.03-9.11,7.23-14.72,5.31-7.63-2.61-9.2-19.45-2.52-23.58Z"/>
        <path class="cls-3" d="m98.83,407.29c-.43.06-2.13.34-4.21,1.68-8.45,5.45-9.39,19.7-9.53,22.43h34.21c-.2-3.24-1.12-10.38-6.45-16.54-1.81-2.09-7.4-8.54-14.02-7.57Z"/>
        <g>
          <path d="m44.46,455.33l-28.96-64.57h3.5l27.95,62.45h-1.75l27.95-62.45h3.32l-28.96,64.57h-3.04Z"/>
          <path d="m101.19,455.6c-4.74,0-8.92-1.03-12.54-3.09-3.63-2.06-6.49-4.93-8.58-8.62-2.09-3.69-3.14-7.87-3.14-12.54s.97-8.92,2.91-12.54c1.94-3.63,4.61-6.49,8.03-8.58,3.41-2.09,7.27-3.14,11.58-3.14s8.07,1.01,11.48,3.04,6.09,4.84,8.03,8.44c1.94,3.6,2.91,7.73,2.91,12.41v.83h-42.89v-2.49h41.23l-1.2,1.48c0-4-.85-7.58-2.54-10.75-1.69-3.17-4.01-5.66-6.96-7.47-2.95-1.81-6.3-2.72-10.05-2.72s-7.1.91-10.05,2.72c-2.95,1.81-5.27,4.3-6.96,7.47-1.69,3.17-2.54,6.78-2.54,10.84v.55c0,4.18.92,7.89,2.77,11.12s4.37,5.75,7.56,7.56c3.2,1.81,6.86,2.72,10.98,2.72,3.14,0,6.1-.58,8.9-1.75,2.8-1.17,5.12-2.95,6.96-5.35l1.94,2.03c-2.15,2.58-4.78,4.54-7.89,5.86-3.11,1.32-6.41,1.98-9.92,1.98Z"/>
          <path d="m136.88,455.33v-47.87h2.95v13.19l-.28-.83c1.29-4,3.55-7.12,6.78-9.36,3.23-2.24,7.27-3.37,12.13-3.37v3.04h-.83c-5.54,0-9.87,1.75-13.01,5.26-3.14,3.5-4.7,8.33-4.7,14.48v25.46h-3.04Z"/>
          <path d="m183.83,455.6c-3.94,0-7.63-.6-11.07-1.8-3.44-1.2-6.06-2.72-7.84-4.57l1.48-2.4c1.78,1.6,4.21,3.01,7.29,4.24,3.07,1.23,6.49,1.84,10.24,1.84,5.35,0,9.21-.92,11.58-2.77,2.37-1.84,3.55-4.24,3.55-7.19,0-2.15-.58-3.84-1.75-5.07-1.17-1.23-2.71-2.18-4.61-2.86-1.91-.68-4.01-1.21-6.32-1.61-2.31-.4-4.63-.86-6.96-1.38-2.34-.52-4.46-1.23-6.37-2.12-1.91-.89-3.44-2.14-4.61-3.74-1.17-1.6-1.75-3.72-1.75-6.36,0-2.27.63-4.37,1.89-6.27,1.26-1.91,3.18-3.46,5.77-4.66s5.87-1.8,9.87-1.8c2.95,0,5.92.45,8.9,1.34,2.98.89,5.36,2.08,7.15,3.55l-1.57,2.4c-1.91-1.54-4.14-2.67-6.69-3.41s-5.18-1.11-7.89-1.11c-4.98,0-8.61.96-10.88,2.86-2.28,1.91-3.41,4.24-3.41,7.01,0,2.21.58,3.98,1.75,5.3,1.17,1.32,2.71,2.32,4.61,3,1.91.68,4.01,1.23,6.32,1.66,2.31.43,4.61.89,6.92,1.38,2.31.49,4.41,1.17,6.32,2.03,1.91.86,3.44,2.06,4.61,3.6,1.17,1.54,1.75,3.63,1.75,6.27,0,2.46-.69,4.66-2.08,6.59-1.38,1.94-3.41,3.43-6.09,4.47-2.67,1.05-6.04,1.57-10.1,1.57Z"/>
          <path d="m228.29,455.6c-3.63,0-6.72-.55-9.27-1.66-2.55-1.11-4.5-2.69-5.86-4.75-1.35-2.06-2.03-4.41-2.03-7.06,0-2.34.55-4.5,1.66-6.5,1.11-2,2.94-3.6,5.49-4.8,2.55-1.2,5.98-1.8,10.29-1.8h18.54v2.49h-18.54c-5.23,0-8.93.98-11.12,2.95-2.18,1.97-3.28,4.46-3.28,7.47,0,3.38,1.26,6.07,3.78,8.07,2.52,2,6.03,3,10.52,3s8.09-1,10.98-3c2.89-2,5.07-4.84,6.55-8.53l1.01,2.03c-1.23,3.63-3.44,6.55-6.64,8.76-3.2,2.21-7.23,3.32-12.08,3.32Zm17.8-.28v-11.16l-.09-1.66v-18.17c0-4.73-1.26-8.33-3.78-10.79-2.52-2.46-6.18-3.69-10.98-3.69-3.5,0-6.7.6-9.59,1.8-2.89,1.2-5.38,2.75-7.47,4.66l-1.66-2.21c2.27-2.15,5.07-3.86,8.39-5.12,3.32-1.26,6.79-1.89,10.42-1.89,5.72,0,10.1,1.46,13.14,4.38,3.04,2.92,4.57,7.21,4.57,12.87v30.99h-2.95Z"/>
          <path d="m286.96,455.6c-4.43,0-8.41-1.03-11.95-3.09-3.54-2.06-6.33-4.92-8.39-8.58-2.06-3.66-3.09-7.86-3.09-12.59s1.03-8.99,3.09-12.59c2.06-3.6,4.86-6.44,8.39-8.53,3.54-2.09,7.52-3.14,11.95-3.14s8.18,1.01,11.62,3.04c3.44,2.03,6.16,4.86,8.16,8.49,2,3.63,3,7.87,3,12.73s-1,9.04-3,12.73c-2,3.69-4.72,6.54-8.16,8.53-3.45,2-7.32,3-11.62,3Zm.09-2.77c3.94,0,7.44-.91,10.52-2.72,3.07-1.81,5.5-4.35,7.29-7.61,1.78-3.26,2.67-6.98,2.67-11.16s-.89-7.98-2.67-11.21c-1.78-3.23-4.21-5.73-7.29-7.52-3.08-1.78-6.58-2.67-10.52-2.67s-7.35.89-10.42,2.67c-3.08,1.78-5.52,4.29-7.33,7.52-1.81,3.23-2.72,6.96-2.72,11.21s.91,7.9,2.72,11.16c1.81,3.26,4.26,5.8,7.33,7.61,3.07,1.81,6.55,2.72,10.42,2.72Zm20.57,2.49v-16.79l.83-7.29-.92-7.29v-37.08h3.04v68.44h-2.95Z"/>
          <path d="m349.13,455.6c-4.49,0-8.5-1.03-12.04-3.09-3.54-2.06-6.33-4.92-8.39-8.58-2.06-3.66-3.09-7.86-3.09-12.59s1.03-8.92,3.09-12.54c2.06-3.63,4.86-6.49,8.39-8.58,3.54-2.09,7.55-3.14,12.04-3.14s8.52,1.03,12.08,3.09c3.57,2.06,6.37,4.91,8.39,8.53,2.03,3.63,3.04,7.84,3.04,12.64s-1.01,8.86-3.04,12.54c-2.03,3.69-4.83,6.57-8.39,8.62-3.57,2.06-7.6,3.09-12.08,3.09Zm0-2.77c3.94,0,7.46-.91,10.56-2.72,3.1-1.81,5.53-4.35,7.29-7.61,1.75-3.26,2.63-6.98,2.63-11.16s-.88-7.98-2.63-11.21-4.18-5.73-7.29-7.52c-3.11-1.78-6.6-2.67-10.47-2.67s-7.44.89-10.52,2.67c-3.08,1.78-5.52,4.29-7.33,7.52-1.81,3.23-2.72,6.96-2.72,11.21s.91,7.9,2.72,11.16c1.81,3.26,4.26,5.8,7.33,7.61,3.07,1.81,6.55,2.72,10.42,2.72Z"/>
        </g>
      </g>
    </g>
  </g>
</svg>